<?xml version="1.0" encoding="utf-8"?>
<!-- Generator: Adobe Illustrator 17.0.0, SVG Export Plug-In . SVG Version: 6.00 Build 0)  -->
<!DOCTYPE svg PUBLIC "-//W3C//DTD SVG 1.1//EN" "http://www.w3.org/Graphics/SVG/1.1/DTD/svg11.dtd">
<svg version="1.1" xmlns="http://www.w3.org/2000/svg" xmlns:xlink="http://www.w3.org/1999/xlink" x="0px" y="0px" width="1000px"
	 height="1000px" viewBox="0 0 1000 1000" enable-background="new 0 0 1000 1000" xml:space="preserve">
<g id="Engrenage_1">
	<path fill="#4F78BC" d="M283.785,105.05c-118.012,0-213.679,95.667-213.679,213.679s95.667,213.679,213.679,213.679
		s213.679-95.667,213.679-213.679S401.796,105.05,283.785,105.05z M283.493,452.276c-73.916,0-133.838-59.921-133.838-133.838
		s59.921-133.838,133.838-133.838s133.838,59.921,133.838,133.838S357.41,452.276,283.493,452.276z"/>
	<g>
		<path fill="#4F78BC" d="M157.783,535.013l9.765,5.638c0,0,13.18,7.664,22.447-3.147l34.177-47.761l-29.707-17.151l1.238,0.715
			l-30.326-17.509l-24.274,53.478c-4.729,13.431,8.498,21.013,8.498,21.013l9.731,5.618"/>
		<path fill="#4F78BC" d="M408.054,101.532l9.765,5.638c0,0,13.227,7.582,8.498,21.013l-24.274,53.478l-29.707-17.151l1.238,0.715
			l-30.326-17.509l34.177-47.761c9.267-10.811,22.447-3.147,22.447-3.147l9.731,5.618"/>
	</g>
	<g>
		<path fill="#4F78BC" d="M66.512,443.074l5.638,9.765c0,0,7.582,13.227,21.013,8.498l53.478-24.274l-17.151-29.707l0.715,1.238
			l-17.509-30.326l-47.761,34.177c-10.811,9.267-3.147,22.447-3.147,22.447l5.618,9.731"/>
		<path fill="#4F78BC" d="M499.994,192.803l5.638,9.765c0,0,7.664,13.18-3.147,22.447l-47.761,34.177l-17.152-29.707l0.715,1.238
			l-17.509-30.326l53.478-24.274c13.431-4.729,21.013,8.498,21.013,8.498l5.618,9.731"/>
	</g>
	<g>
		<path fill="#4F78BC" d="M67.426,192.803l-5.638,9.765c0,0-7.664,13.18,3.147,22.447l47.761,34.177l17.151-29.707l-0.715,1.238
			l17.509-30.326l-53.478-24.274c-13.431-4.729-21.013,8.498-21.013,8.498l-5.618,9.731"/>
		<path fill="#4F78BC" d="M500.907,443.074l-5.638,9.765c0,0-7.582,13.227-21.013,8.498l-53.478-24.274l17.151-29.707l-0.715,1.238
			l17.509-30.326l47.761,34.177c10.811,9.267,3.147,22.447,3.147,22.447l-5.618,9.731"/>
	</g>
	<g>
		<path fill="#4F78BC" d="M159.365,101.532l-9.765,5.638c0,0-13.227,7.582-8.498,21.013l24.274,53.478l29.707-17.151l-1.238,0.715
			l30.326-17.509l-34.177-47.761c-9.267-10.811-22.447-3.147-22.447-3.147l-9.731,5.618"/>
		<path fill="#4F78BC" d="M409.636,535.013l-9.765,5.638c0,0-13.18,7.664-22.447-3.147l-34.177-47.761l29.707-17.151l-1.238,0.715
			l30.326-17.509l24.274,53.478c4.729,13.431-8.498,21.013-8.498,21.013l-9.731,5.618"/>
	</g>
	<g>
		<path fill="#4F78BC" d="M285,68h-11.653c0,0-15.246,0.253-17.866,14.249L249.764,141h34.303h-1.429h35.018l-5.717-58.751
			C309.318,68.253,294.072,68,294.072,68H282"/>
		<path fill="#4F78BC" d="M285,569h-11.653c0,0-15.246-0.253-17.866-14.249L249.764,496h34.303h-1.429h35.018l-5.717,58.751
			C309.318,568.747,294.072,569,294.072,569H282"/>
	</g>
	<g>
		<path fill="#4F78BC" d="M33,317v12.092c0,0,0.253,15.246,14.249,17.866L106,352.675v-34.303v1.429v-35.018l-58.751,5.717
			C33.253,293.121,33,308.367,33,308.367V320"/>
		<path fill="#4F78BC" d="M534,317v12.092c0,0-0.253,15.246-14.249,17.866L461,352.675v-34.303v1.429v-35.018l58.751,5.717
			c13.996,2.62,14.249,17.866,14.249,17.866V320"/>
	</g>
</g>
<g id="Engrenage_3">
	<path fill="#39B54A" d="M270.286,664.792c-41.481,69.037-19.143,158.629,49.893,200.111
		c69.037,41.481,158.629,19.143,200.111-49.893s19.143-158.629-49.893-200.111C401.36,573.418,311.767,595.756,270.286,664.792z
		 M473.31,787.013c-25.982,43.241-82.098,57.232-125.339,31.251c-43.241-25.982-57.232-82.098-31.251-125.339
		c25.982-43.241,82.098-57.232,125.339-31.25C485.3,687.656,499.292,743.772,473.31,787.013z"/>
	<g>
		<path fill="#39B54A" d="M477.524,889.636l6.731-3.731c0,0,9.116-5.016,6.049-14.238l-15.927-36.781l-20.476,11.35l0.853-0.473
			l-20.902,11.586l22.752,32.998c6.195,7.487,15.28,2.415,15.28,2.415l6.707-3.718"/>
		<path fill="#39B54A" d="M311.908,590.858l6.731-3.731c0,0,9.085-5.073,15.28,2.415l22.752,32.998l-20.476,11.35l0.853-0.473
			l-20.902,11.586l-15.927-36.781c-3.067-9.221,6.049-14.238,6.049-14.238l6.707-3.718"/>
	</g>
	<g>
		<path fill="#39B54A" d="M391.657,910.713l7.694,0.134c0,0,10.403,0.214,12.358-9.306l4.597-39.817l-23.408-0.409l0.975,0.017
			l-23.895-0.417l3.205,39.953c1.621,9.582,12.025,9.731,12.025,9.731l7.668,0.134"/>
		<path fill="#39B54A" d="M397.619,569.156l7.694,0.134c0,0,10.404,0.149,12.025,9.731l3.205,39.953l-23.408-0.409l0.975,0.017
			l-23.895-0.417l4.597-39.817c1.955-9.519,12.358-9.306,12.358-9.306l7.668,0.134"/>
	</g>
	<g>
		<path fill="#39B54A" d="M245.57,822.207l3.731,6.731c0,0,5.016,9.116,14.238,6.049l36.781-15.927l-11.35-20.476l0.473,0.853
			l-11.586-20.902l-32.998,22.752c-7.487,6.195-2.415,15.28-2.415,15.28l3.718,6.707"/>
		<path fill="#39B54A" d="M544.348,656.592l3.731,6.731c0,0,5.073,9.085-2.415,15.28l-32.998,22.752l-11.35-20.476l0.473,0.853
			l-11.586-20.902l36.781-15.927c9.221-3.067,14.238,6.049,14.238,6.049l3.718,6.707"/>
	</g>
	<g>
		<path fill="#39B54A" d="M224.494,736.341l-0.134,7.694c0,0-0.214,10.403,9.306,12.358l39.817,4.597l0.409-23.408l-0.017,0.975
			l0.417-23.895l-39.953,3.205c-9.582,1.621-9.731,12.025-9.731,12.025l-0.134,7.668"/>
		<path fill="#39B54A" d="M566.051,742.303l-0.134,7.694c0,0-0.149,10.404-9.731,12.025l-39.953,3.205l0.409-23.408l-0.017,0.975
			l0.417-23.895l39.817,4.597c9.519,1.955,9.306,12.358,9.306,12.358l-0.134,7.667"/>
	</g>
	<g>
		<path fill="#39B54A" d="M248.939,651.072l-4.064,6.763c0,0-5.134,9.054,2.132,15.506l32.436,24.042l12.058-20.067L291,678.152
			l12.309-20.485l-36.456-17.353c-9.109-3.387-14.692,5.397-14.692,5.397l-4.251,7.075"/>
		<path fill="#39B54A" d="M542.091,827.215l-4.064,6.763c0,0-5.155,9.041-14.264,5.654l-36.027-17.095l12.058-20.067l-0.502,0.836
			l12.309-20.485l32.008,23.784c7.267,6.453,1.704,15.249,1.704,15.249l-4.251,7.075"/>
	</g>
	<g>
		<path fill="#39B54A" d="M306.071,886.061l7.087,4.258c0,0,9.054,5.134,15.506-2.133l24.042-32.436l-20.067-12.058l0.836,0.502
			l-20.485-12.309l-17.353,36.456c-3.387,9.109,5.397,14.692,5.397,14.692l6.752,4.057"/>
		<path fill="#39B54A" d="M482.214,592.91l7.087,4.258c0,0,9.041,5.155,5.654,14.264l-17.095,36.027l-20.067-12.058l0.836,0.502
			l-20.485-12.309l23.784-32.008c6.453-7.267,15.249-1.704,15.249-1.704l6.752,4.057"/>
	</g>
</g>
<g id="Engrenage_2">
	<path fill="#F26822" d="M706.193,307.579c-104.142,0-188.565,84.424-188.565,188.565s84.424,188.565,188.565,188.565
		c104.142,0,188.565-84.424,188.565-188.565S810.334,307.579,706.193,307.579z M705.936,613.994
		c-65.229,0-118.107-52.879-118.107-118.107s52.878-118.107,118.107-118.107s118.107,52.879,118.107,118.107
		S771.165,613.994,705.936,613.994z"/>
	<g>
		<path fill="#F26822" d="M595,687.008l8.617,4.975c0,0,11.631,6.763,19.809-2.777l30.16-42.148l-26.216-15.136l1.092,0.631
			l-26.762-15.451l-21.421,47.193c-4.173,11.853,7.499,18.544,7.499,18.544l8.587,4.958"/>
		<path fill="#F26822" d="M815.857,304.474l8.617,4.975c0,0,11.672,6.691,7.499,18.544l-21.421,47.193l-26.216-15.136l1.092,0.631
			l-26.762-15.451l30.16-42.148c8.178-9.54,19.809-2.777,19.809-2.777l8.587,4.958"/>
	</g>
	<g>
		<path fill="#F26822" d="M514.457,605.874l4.975,8.617c0,0,6.691,11.672,18.544,7.499l47.193-21.421l-15.136-26.216l0.631,1.092
			l-15.451-26.762l-42.148,30.16c-9.54,8.178-2.777,19.809-2.777,19.809l4.958,8.587"/>
		<path fill="#F26822" d="M896.991,385.018l4.975,8.617c0,0,6.763,11.631-2.777,19.809l-42.148,30.16l-15.136-26.216l0.631,1.092
			l-15.451-26.762l47.193-21.421c11.853-4.173,18.544,7.499,18.544,7.499l4.958,8.587"/>
	</g>
	<g>
		<path fill="#F26822" d="M515.263,385.018l-4.975,8.617c0,0-6.763,11.631,2.777,19.809l42.148,30.16l15.136-26.216l-0.631,1.092
			l15.451-26.762l-47.193-21.421c-11.853-4.173-18.544,7.499-18.544,7.499l-4.958,8.587"/>
		<path fill="#F26822" d="M897.797,605.874l-4.975,8.617c0,0-6.691,11.672-18.544,7.499l-47.193-21.421l15.136-26.216l-0.631,1.092
			l15.451-26.762l42.148,30.16c9.54,8.178,2.777,19.809,2.777,19.809l-4.958,8.587"/>
	</g>
	<g>
		<path fill="#F26822" d="M596.397,304.474l-8.617,4.975c0,0-11.672,6.691-7.499,18.544l21.421,47.193l26.216-15.136l-1.092,0.631
			l26.762-15.451l-30.16-42.148c-8.178-9.54-19.809-2.777-19.809-2.777l-8.587,4.958"/>
		<path fill="#F26822" d="M817.253,687.008l-8.617,4.975c0,0-11.631,6.763-19.809-2.777l-30.16-42.148l26.216-15.136l-1.092,0.631
			l26.762-15.451l21.421,47.193c4.173,11.853-7.499,18.544-7.499,18.544l-8.587,4.958"/>
	</g>
	<g>
		<path fill="#F26822" d="M707,275h-10.018c0,0-13.454,0.013-15.766,12.364L676.171,339h30.271h-1.261h30.902l-5.045-51.636
			C728.725,275.013,715.271,275,715.271,275H705"/>
		<path fill="#F26822" d="M707,717h-10.018c0,0-13.454-0.013-15.766-12.364L676.171,653h30.271h-1.261h30.902l-5.045,51.636
			C728.725,716.987,715.271,717,715.271,717H705"/>
	</g>
	<g>
		<path fill="#F26822" d="M485,495v10.288c0,0,0.013,13.454,12.364,15.766L549,526.1v-30.271v1.261v-30.902l-51.636,5.045
			C485.013,473.546,485,486.999,485,486.999V497"/>
		<path fill="#F26822" d="M927,495v10.288c0,0-0.013,13.454-12.364,15.766L863,526.1v-30.271v1.261v-30.902l51.636,5.045
			C926.987,473.546,927,486.999,927,486.999V497"/>
	</g>
</g>
</svg>
