<?xml version="1.0" encoding="utf-8"?>
<!-- Generator: Adobe Illustrator 17.0.0, SVG Export Plug-In . SVG Version: 6.00 Build 0)  -->
<!DOCTYPE svg PUBLIC "-//W3C//DTD SVG 1.1//EN" "http://www.w3.org/Graphics/SVG/1.1/DTD/svg11.dtd">
<svg version="1.1" xmlns="http://www.w3.org/2000/svg" xmlns:xlink="http://www.w3.org/1999/xlink" x="0px" y="0px" width="800px"
	 height="600px" viewBox="0 0 800 600" enable-background="new 0 0 800 600" xml:space="preserve">
<g id="Fond">
	<rect fill="#F26822" width="800" height="600"/>
</g>
<g id="Puce" display="none">
	<path display="inline" fill="none" stroke="#FFFFFF" stroke-width="10" stroke-miterlimit="10" d="M637,381c0,6.627-5.373,12-12,12
		H485c-6.627,0-12-5.373-12-12V191c0-6.627,5.373-12,12-12h140c6.627,0,12,5.373,12,12V381z"/>
</g>
<g id="Atome">
	<circle fill="#FFFFFF" cx="285.054" cy="282.27" r="28.378"/>
	
		<ellipse fill="none" stroke="#FFFFFF" stroke-width="10" stroke-miterlimit="10" cx="284.689" cy="282.257" rx="144.932" ry="45.608"/>
	
		<ellipse transform="matrix(0.5 -0.866 0.866 0.5 -102.0969 387.6765)" fill="none" stroke="#FFFFFF" stroke-width="10" stroke-miterlimit="10" cx="284.689" cy="282.257" rx="144.932" ry="45.608"/>
	
		<ellipse transform="matrix(0.5 0.866 -0.866 0.5 386.7861 -105.4197)" fill="none" stroke="#FFFFFF" stroke-width="10" stroke-miterlimit="10" cx="284.689" cy="282.257" rx="144.932" ry="45.608"/>
</g>
<g id="Fil">
	<path fill="none" stroke="#FFFFFF" stroke-width="10" stroke-miterlimit="10" d="M293.216,372.467
		c29.727,32.52,56.451,46.866,72.81,40.132c0,0,18.57-8.193,26.975-6.933c13.333,2,37.333,26.333,59.667,27.333
		c0,0,147,1.667,217.333-32"/>
	<path fill="none" stroke="#FFFFFF" stroke-width="10" stroke-miterlimit="10" d="M731.619,405.576
		C725.264,415.172,714.371,421.5,702,421.5c-19.606,0-35.5-15.894-35.5-35.5c0-16.103,10.721-29.701,25.415-34.047"/>
	<line fill="none" stroke="#FFFFFF" stroke-width="10" stroke-miterlimit="10" x1="686.75" y1="350" x2="732" y2="411"/>
	<line fill="none" stroke="#FFFFFF" stroke-width="10" stroke-miterlimit="10" x1="697.504" y1="363.497" x2="721.5" y2="346.75"/>
	<line fill="none" stroke="#FFFFFF" stroke-width="10" stroke-miterlimit="10" x1="722.504" y1="397.497" x2="746.5" y2="380.75"/>
</g>
</svg>
